<svg xmlns="http://www.w3.org/2000/svg" width="96" height="96" viewBox="0 0 96 96" fill="none" stroke="#334155" stroke-width="4" stroke-linecap="round" stroke-linejoin="round">
  <circle cx="72" cy="20" r="8"/>
  <line x1="72" y1="4" x2="72" y2="10"/>
  <line x1="72" y1="30" x2="72" y2="36"/>
  <line x1="56" y1="20" x2="62" y2="20"/>
  <line x1="82" y1="20" x2="88" y2="20"/>
  <line x1="61" y1="9" x2="65" y2="13"/>
  <line x1="79" y1="27" x2="83" y2="31"/>
  <line x1="61" y1="31" x2="65" y2="27"/>
  <line x1="79" y1="13" x2="83" y2="9"/>
  <rect x="16" y="32" width="44" height="30" rx="4"/>
  <line x1="16" y1="47" x2="60" y2="47"/>
  <line x1="31" y1="32" x2="31" y2="62"/>
  <line x1="45" y1="32" x2="45" y2="62"/>
  <line x1="38" y1="62" x2="32" y2="76"/>
  <line x1="38" y1="62" x2="44" y2="76"/>
  <line x1="26" y1="76" x2="50" y2="76"/>
</svg>
